<?xml version="1.0" encoding="UTF-8"?>
<svg id="Layer_2" data-name="Layer 2" xmlns="http://www.w3.org/2000/svg" xmlns:xlink="http://www.w3.org/1999/xlink" viewBox="0 0 2354.58 419.87">
  <defs>
    <style>
      .cls-1 {
        fill: url(#linear-gradient-12);
      }

      .cls-1, .cls-2, .cls-3, .cls-4, .cls-5, .cls-6, .cls-7, .cls-8, .cls-9, .cls-10, .cls-11, .cls-12, .cls-13, .cls-14, .cls-15, .cls-16, .cls-17, .cls-18, .cls-19, .cls-20, .cls-21, .cls-22, .cls-23, .cls-24 {
        stroke-width: 0px;
      }

      .cls-2 {
        fill: url(#linear-gradient-17);
      }

      .cls-3 {
        fill: url(#linear-gradient-19);
      }

      .cls-4 {
        fill: url(#linear-gradient);
      }

      .cls-5 {
        fill: url(#linear-gradient-21);
      }

      .cls-6 {
        fill: url(#linear-gradient-6);
      }

      .cls-7 {
        fill: url(#linear-gradient-15);
      }

      .cls-8 {
        fill: url(#linear-gradient-11);
      }

      .cls-9 {
        fill: url(#linear-gradient-5);
      }

      .cls-10 {
        fill: url(#linear-gradient-13);
      }

      .cls-11 {
        fill: url(#linear-gradient-23);
      }

      .cls-12 {
        fill: url(#linear-gradient-16);
      }

      .cls-13 {
        fill: url(#linear-gradient-22);
      }

      .cls-14 {
        fill: url(#linear-gradient-20);
      }

      .cls-15 {
        fill: url(#linear-gradient-14);
      }

      .cls-16 {
        fill: url(#linear-gradient-2);
      }

      .cls-17 {
        fill: url(#linear-gradient-7);
      }

      .cls-18 {
        fill: url(#linear-gradient-3);
      }

      .cls-19 {
        fill: url(#linear-gradient-9);
      }

      .cls-20 {
        fill: url(#linear-gradient-8);
      }

      .cls-21 {
        fill: url(#linear-gradient-24);
      }

      .cls-22 {
        fill: url(#linear-gradient-18);
      }

      .cls-23 {
        fill: url(#linear-gradient-10);
      }

      .cls-24 {
        fill: url(#linear-gradient-4);
      }
    </style>
    <linearGradient id="linear-gradient" x1="1199.14" y1="70.57" x2="1199.14" y2="289.8" gradientUnits="userSpaceOnUse">
      <stop offset="0" stop-color="#f2f2f2"/>
      <stop offset="1" stop-color="#e6e6e6"/>
    </linearGradient>
    <linearGradient id="linear-gradient-2" x1="1383.82" y1="70.6" x2="1383.82" y2="289.8" xlink:href="#linear-gradient"/>
    <linearGradient id="linear-gradient-3" x1="1539.29" y1="70.6" x2="1539.29" y2="289.8" xlink:href="#linear-gradient"/>
    <linearGradient id="linear-gradient-4" x1="1701.04" y1="70.6" x2="1701.04" y2="289.8" xlink:href="#linear-gradient"/>
    <linearGradient id="linear-gradient-5" x1="1868.16" y1="70.6" x2="1868.16" y2="289.8" xlink:href="#linear-gradient"/>
    <linearGradient id="linear-gradient-6" x1="2073.87" y1="70.59" x2="2073.87" y2="289.8" xlink:href="#linear-gradient"/>
    <linearGradient id="linear-gradient-7" x1="2280.07" y1="70.55" x2="2280.07" y2="289.8" xlink:href="#linear-gradient"/>
    <linearGradient id="linear-gradient-8" x1="583.17" y1="70.59" x2="583.17" y2="289.8" xlink:href="#linear-gradient"/>
    <linearGradient id="linear-gradient-9" x1="787.95" y1="70.59" x2="787.95" y2="289.8" xlink:href="#linear-gradient"/>
    <linearGradient id="linear-gradient-10" x1="996.23" y1="70.59" x2="996.23" y2="289.8" xlink:href="#linear-gradient"/>
    <linearGradient id="linear-gradient-11" x1="286.71" y1="-88.39" x2="286.71" y2="255.76" xlink:href="#linear-gradient"/>
    <linearGradient id="linear-gradient-12" x1="200.77" y1="-88.39" x2="200.77" y2="255.75" xlink:href="#linear-gradient"/>
    <linearGradient id="linear-gradient-13" x1="114.83" y1="-88.4" x2="114.83" y2="255.76" xlink:href="#linear-gradient"/>
    <linearGradient id="linear-gradient-14" x1="200.76" y1="-88.37" x2="200.76" y2="255.75" xlink:href="#linear-gradient"/>
    <linearGradient id="linear-gradient-15" x1="-22.9" y1="84.88" x2="81.53" y2="189.3" xlink:href="#linear-gradient"/>
    <linearGradient id="linear-gradient-16" x1="-355.99" y1="84.88" x2="-251.57" y2="189.3" gradientTransform="translate(68.44) rotate(-180) scale(1 -1)" xlink:href="#linear-gradient"/>
    <linearGradient id="linear-gradient-17" x1="200.77" y1="220.17" x2="200.77" y2="355.89" xlink:href="#linear-gradient"/>
    <linearGradient id="linear-gradient-18" x1="106.84" y1="343.75" x2="91.96" y2="314.66" xlink:href="#linear-gradient"/>
    <linearGradient id="linear-gradient-19" x1="-54.69" y1="343.75" x2="-69.57" y2="314.66" gradientTransform="translate(240) rotate(-180) scale(1 -1)" xlink:href="#linear-gradient"/>
    <linearGradient id="linear-gradient-20" x1="41.16" y1="441.02" x2="28.98" y2="338.2" xlink:href="#linear-gradient"/>
    <linearGradient id="linear-gradient-21" x1="-130.96" y1="441.02" x2="-143.14" y2="338.2" gradientTransform="translate(229.43) rotate(-180) scale(1 -1)" xlink:href="#linear-gradient"/>
    <linearGradient id="linear-gradient-22" x1="203.69" y1="115.49" x2="190.9" y2="7.53" xlink:href="#linear-gradient"/>
    <linearGradient id="linear-gradient-23" x1="172.68" y1="142.66" x2="141.11" y2="161.15" xlink:href="#linear-gradient"/>
    <linearGradient id="linear-gradient-24" x1="-27.91" y1="142.66" x2="-59.47" y2="161.15" gradientTransform="translate(200.95) rotate(-180) scale(1 -1)" xlink:href="#linear-gradient"/>
  </defs>
  <g id="Camada_1" data-name="Camada 1">
    <g>
      <g>
        <g>
          <path class="cls-4" d="m1225.75,183.95l-45.63-20.01-76.67,200.4h41.54l15.38-41.57h77.39l15.52,41.57h41.54l-69.08-180.39Zm-52.74,103.53l19.82-52.16c1.01-2.4,2.14-5.36,3.36-8.67,1.23-3.39,2.21-6.51,2.93-9.42.84,2.91,1.87,6.03,3.03,9.42,1.15,3.32,2.26,6.27,3.29,8.67l19.73,52.16h-52.16Z"/>
          <path class="cls-16" d="m1412.36,310.74c-2.07,6.92-5.24,12.13-9.63,15.81-4.37,3.63-9.75,5.43-16.12,5.43-4.35,0-8.31-.91-11.89-2.84-3.51-1.9-6.56-4.64-9.03-8.22-2.57-3.53-4.52-7.79-5.89-12.78-1.42-5-2.11-10.62-2.11-16.89s.7-11.89,2.11-16.87c1.37-5.07,3.36-9.37,5.91-12.88,2.59-3.6,5.67-6.32,9.42-8.29,3.65-1.95,7.78-2.93,12.37-2.93,5.89,0,10.91,1.78,15.09,5.24,4.18,3.53,7.38,8.03,9.54,13.67l35.53-11.77c-4.76-14.92-12.4-25.83-22.9-32.68-10.5-6.85-23.21-10.28-38.15-10.28-10.14,0-19.34,1.75-27.61,5.24-8.27,3.51-15.26,8.55-21.05,15.16-5.77,6.65-10.28,14.75-13.45,24.22-3.15,9.51-4.76,20.28-4.76,32.17s1.61,22.66,4.76,32.1c3.17,9.51,7.69,17.54,13.45,24.1,5.79,6.56,12.78,11.6,21.05,15.14,8.27,3.46,17.47,5.21,27.61,5.21,15.86,0,28.98-3.89,39.26-11.68,10.33-7.79,17.66-19.39,22.03-34.77l-35.53-10.62Z"/>
          <path class="cls-18" d="m1600.92,249.38c-1.73-6.03-4.08-11.08-7.06-15.23-2.98-4.18-6.46-7.54-10.4-10.14-3.99-2.64-8.19-4.66-12.59-6.01-4.47-1.42-9.01-2.35-13.67-2.86-4.64-.43-9.2-.67-13.55-.67-6.27,0-12.25.43-18.02,1.32-5.72.87-11.1,2.14-16.15,3.7-5.05,1.59-9.71,3.44-14.06,5.53-4.35,2.11-8.22,4.32-11.7,6.68l11.51,30.06c6.9-4.76,13.96-8.36,21.24-10.93,7.3-2.47,15.28-3.77,23.95-3.77s15.02,1.87,19.58,5.6c4.54,3.77,6.85,9.63,6.85,17.66v7.54c-4.47-2.16-9.44-3.87-14.87-5.09-5.5-1.27-11.72-1.9-18.72-1.9s-14.39.94-21.34,2.79c-6.97,1.85-13.12,4.78-18.62,8.77-5.43,3.97-9.83,8.99-13.21,15.11-3.36,6.08-5.02,13.36-5.02,21.74s1.42,15.02,4.2,21.05c2.79,6.01,6.61,11.1,11.44,15.16,4.85,4.13,10.55,7.21,17.08,9.25,6.54,2.07,13.57,3.07,21.17,3.07,4.73,0,9.03-.38,12.9-1.18,3.89-.77,7.4-1.83,10.6-3.22,3.17-1.37,5.91-2.88,8.31-4.57,2.33-1.66,4.42-3.36,6.08-5.19v10.69h36.66v-93.49c0-8.34-.89-15.47-2.59-21.48Zm-34.07,73.67c-3.63,3.27-8,6.1-13.02,8.46-5.05,2.4-10.98,3.58-17.78,3.58-8.02,0-14.1-1.42-18.31-4.33-4.2-2.93-6.32-6.75-6.32-11.48,0-3,.74-5.53,2.26-7.71,1.47-2.14,3.53-3.89,6.08-5.21,2.59-1.39,5.57-2.36,8.96-2.93,3.44-.65,7.04-.94,10.86-.94,4.95,0,9.73.43,14.49,1.3,4.69.91,8.96,2.09,12.78,3.44v15.83Z"/>
          <path class="cls-24" d="m1728.48,174.32v54.13c-3.17-4.2-7.4-7.59-12.61-10.11-5.19-2.6-11.41-3.87-18.62-3.87-8.75,0-16.84,1.75-24.27,5.24-7.4,3.51-13.82,8.55-19.25,15.11-5.38,6.56-9.66,14.58-12.73,24.1-3.08,9.44-4.59,20.16-4.59,32.1s1.42,23.4,4.3,32.94c2.93,9.54,6.99,17.56,12.3,24.1,5.21,6.44,11.58,11.39,19.08,14.73,7.45,3.36,15.76,5.02,24.92,5.02,7.45,0,13.82-1.2,19.1-3.7,5.21-2.45,9.37-5.91,12.37-10.45v10.69h37.19v-206.94l-37.19,16.91Zm0,145.94c-2.74,3.7-6.13,6.61-10.24,8.65-4.11,2.07-9.2,3.08-15.28,3.08-4.73,0-8.89-.91-12.57-2.84-3.63-1.9-6.7-4.69-9.15-8.26-2.5-3.58-4.37-7.93-5.57-12.93-1.27-5.05-1.9-10.72-1.9-16.94,0-13.17,2.47-23.23,7.52-30.25,5.02-6.99,12.3-10.48,21.67-10.48,3.2,0,6.13.34,8.77,1.03,2.64.74,5.09,1.66,7.3,2.84,2.19,1.13,4.06,2.45,5.67,3.92,1.56,1.42,2.84,2.84,3.77,4.25v57.93Z"/>
          <path class="cls-9" d="m1929.79,252.89c-3.36-8.6-7.93-15.81-13.7-21.5-5.77-5.67-12.64-9.92-20.54-12.71-7.95-2.79-16.46-4.2-25.54-4.2-10.5,0-19.99,1.75-28.42,5.24-8.48,3.51-15.67,8.55-21.62,15.11-5.98,6.56-10.55,14.58-13.72,24.1-3.17,9.44-4.76,20.16-4.76,32.1s1.59,22.66,4.76,32.17c3.17,9.54,7.74,17.56,13.65,24.22,5.93,6.61,13.07,11.65,21.55,15.18,8.41,3.46,17.95,5.21,28.57,5.21,12.25,0,22.82-2.23,31.79-6.68,8.96-4.52,16.55-10.55,22.66-18.09l-22.9-23.09c-4.2,5.36-8.82,9.2-13.86,11.56-5.05,2.4-10.91,3.58-17.68,3.58-4.04,0-7.9-.65-11.58-1.97-3.63-1.32-6.85-3.22-9.68-5.72-2.91-2.55-5.26-5.6-7.11-9.25-1.85-3.63-2.98-7.83-3.34-12.59h95.41c.55-3.92.89-7.88.99-11.85.12-3.96.14-7.4.14-10.26,0-11.77-1.66-21.94-5.05-30.56Zm-91.23,21.19c1.13-9.25,4.44-16.05,10.04-20.42,5.53-4.4,12.66-6.61,21.41-6.61,7.52,0,13.82,2.35,18.93,7.02,5.12,4.64,8.29,11.36,9.54,20.01h-59.92Z"/>
          <path class="cls-6" d="m2174.26,244.76c-2.79-7.45-6.66-13.38-11.56-17.83-4.9-4.52-10.72-7.69-17.42-9.59-6.7-1.92-13.96-2.88-21.7-2.88-9.06,0-17.47,1.61-25.3,4.88-7.83,3.29-14.39,8.53-19.63,15.67-3.41-6.7-8.22-11.8-14.39-15.3-6.17-3.48-13.86-5.24-23.09-5.24-7.86,0-14.61,1.51-20.28,4.54-5.67,3.03-10.48,7.16-14.46,12.37v-13.55h-37.17v146.51h37.17v-86.49c0-6.05.84-10.91,2.47-14.54,1.66-3.68,3.72-6.41,6.25-8.34,2.5-1.9,5.26-3.17,8.24-3.8,2.98-.6,5.81-.89,8.58-.89,2.47,0,5.12.29,7.86.84,2.76.53,5.24,1.8,7.5,3.77,2.26,1.95,4.11,4.78,5.57,8.46,1.51,3.68,2.26,8.63,2.26,14.78v86.21h37.24v-86.49c0-6.05.79-10.91,2.45-14.54,1.63-3.68,3.68-6.41,6.13-8.34,2.5-1.9,5.24-3.17,8.27-3.8,3.05-.6,5.91-.89,8.77-.89,2.5,0,5.09.29,7.83.84,2.69.53,5.19,1.8,7.4,3.77,2.26,1.95,4.11,4.78,5.6,8.46,1.49,3.68,2.21,8.63,2.21,14.78v86.21h37.41v-91.92c0-11-1.42-20.28-4.2-27.65Z"/>
          <path class="cls-17" d="m2316.54,217.83l-32.2,84.64c-.74,2.14-1.47,4.35-2.21,6.56-.77,2.26-1.42,4.54-1.95,6.9-1.23-4.61-2.71-9.06-4.37-13.45l-32.05-84.64h-38.2l54.97,144.54-22.2,57.5h38.61l77.63-202.04h-38.03Z"/>
        </g>
        <g>
          <path class="cls-20" d="m488.48,144.17l14.27,45.72h61.41v179.69h52.28v-179.69h61.41v-45.72h-189.38Z"/>
          <path class="cls-19" d="m864.73,189.89v-45.72h-153.55v225.41h52.28v-80.71h88.22v-45.72h-88.22v-53.27h101.27Z"/>
          <path class="cls-23" d="m898.06,144.17v45.72h61.41v179.69h52.28v-179.69h61.44l21.22-45.72h-196.34Z"/>
        </g>
      </g>
      <g>
        <g>
          <path class="cls-8" d="m252.74,340.02c6.86,9.26,17.86,15.28,30.28,15.28,20.79,0,37.65-16.86,37.65-37.65,0-11.13-4.83-21.14-12.51-28.04l-55.41,50.41Z"/>
          <polygon class="cls-1" points="401.53 120.19 401.52 335.57 334.23 419.84 355.97 322.44 345.02 224.96 298.21 267.53 298.18 267.57 200.82 356.12 200.77 356.07 200.71 356.12 103.34 267.56 56.51 224.96 45.57 322.44 59.08 383.01 67.3 419.84 .02 335.57 .02 258.35 0 120.19 109.2 66.42 65.98 144.49 200.71 269.89 200.77 269.82 200.82 269.89 335.56 144.49 292.33 66.42 401.53 120.19"/>
        </g>
        <path class="cls-10" d="m148.8,340.02c-6.86,9.27-17.87,15.28-30.29,15.28-7.85,0-15.13-2.4-21.17-6.53-9.95-6.76-16.48-18.19-16.48-31.12,0-11.13,4.84-21.14,12.51-28.03l5.71,5.19,49.72,45.22Z"/>
        <path class="cls-15" d="m268.69,122.69l-17.59-31.79L200.76,0l-50.31,90.87v.02l-17.61,31.79-6.61,11.92,28.04,25.59h.02l46.47,42.43,74.53-68.02-6.61-11.92Zm-100.24,5l32.32-58.38,32.34,58.38-32.34,29.5-32.32-29.5Z"/>
        <polygon class="cls-7" points="109.2 66.42 24.34 136.18 .02 258.35 0 120.19 109.2 66.42"/>
        <polygon class="cls-12" points="292.33 66.42 377.2 136.18 401.52 258.35 401.53 120.19 292.33 66.42"/>
        <polygon class="cls-2" points="298.21 267.53 298.18 267.57 200.82 356.12 200.77 356.07 200.71 356.12 103.34 267.56 200.99 324.51 298.21 267.53"/>
        <path class="cls-22" d="m97.34,348.77c-9.95-6.76-16.48-18.19-16.48-31.12,0-11.13,4.84-21.14,12.51-28.03l5.71,5.19c-2.94,2.51-5.84,5.8-8.01,10.04-10.21,19.97,5.43,42.77,6.27,43.92Z"/>
        <path class="cls-3" d="m304.19,348.77c9.95-6.76,16.48-18.19,16.48-31.12,0-11.13-4.84-21.14-12.51-28.03l-5.71,5.19c2.94,2.51,5.84,5.8,8.01,10.04,10.21,19.97-5.43,42.77-6.27,43.92Z"/>
        <polygon class="cls-14" points="67.3 419.84 .02 335.57 59.08 383.01 67.3 419.84"/>
        <polygon class="cls-5" points="334.25 419.84 401.53 335.57 342.47 383.01 334.25 419.84"/>
        <polygon class="cls-13" points="251.09 90.89 200.99 26.83 150.46 90.87 200.77 0 251.09 90.89"/>
        <polygon class="cls-11" points="178.78 182.41 126.24 134.6 132.83 122.68 178.78 182.41"/>
        <polygon class="cls-21" points="222.75 182.41 275.29 134.6 268.7 122.68 222.75 182.41"/>
      </g>
    </g>
  </g>
</svg>