<svg width="902" height="149" viewBox="0 0 902 149" fill="none" xmlns="http://www.w3.org/2000/svg">
<g clip-path="url(#clip0_150_2)">
<path d="M137.946 59H115.098L98.842 11.384H119.834L128.474 41.208L137.306 11.384H157.402L166.17 41.208L174.874 11.384H193.946L178.01 59H155.226L146.586 31.288L137.946 59ZM197.318 59V11.384H216.838V27.64H239.622V11.384H259.078V59H239.622V41.592H216.838V59H197.318ZM268.038 11.384H317.83V23.544H287.622V28.664H316.87V41.144H287.622V46.712H318.278V59H268.038V11.384ZM370.806 59L345.142 33.4V59H326.07V11.384H345.91L370.358 35.768V11.384H389.43V59H370.806ZM416.948 59V11.384H446.964C473.652 11.384 479.412 22.712 479.412 34.04V35.96C479.412 47.288 473.652 59 446.964 59H416.948ZM436.468 24.504V45.816H444.084C457.332 45.816 458.932 39.8 458.932 35.256V34.872C458.932 30.648 457.332 24.504 444.084 24.504H436.468ZM505.687 11.384V59H486.167V11.384H505.687ZM514.638 59V11.384H544.654C571.342 11.384 577.102 22.712 577.102 34.04V35.96C577.102 47.288 571.342 59 544.654 59H514.638ZM534.158 24.504V45.816H541.774C555.022 45.816 556.622 39.8 556.622 35.256V34.872C556.622 30.648 555.022 24.504 541.774 24.504H534.158ZM621.334 59V42.232L595.798 11.384H619.414L631.894 27.192L644.694 11.384H665.558L640.79 42.232V59H621.334ZM694.367 10.552H697.311C724.511 10.552 729.119 24.568 729.119 34.104V36.024C729.119 45.432 724.575 59.832 697.311 59.832H694.367C667.295 59.832 662.623 45.432 662.623 36.024V34.104C662.687 24.568 667.295 10.552 694.367 10.552ZM708.639 34.616C708.639 30.84 707.103 24.632 695.839 24.632C684.447 24.632 683.039 30.84 683.039 34.616V35.256C683.039 39.16 684.703 45.496 695.903 45.496C707.103 45.496 708.639 39.16 708.639 35.256V34.616ZM766.483 59.704C737.235 59.704 735.763 42.616 735.763 33.272V11.384H755.219V33.272C755.219 38.648 757.203 44.152 767.315 44.152H767.571C777.363 44.152 779.347 38.648 779.347 33.272V11.384H798.803V33.272C798.803 42.616 796.627 59.704 768.467 59.704H766.483ZM68.6275 88.384H88.1475V121.152H116.308V136H68.6275V88.384ZM158.677 116.928L152.149 102.464L145.557 116.928H158.677ZM167.381 136L164.117 128.896H140.117L136.853 136H117.333L139.925 88.384H165.205L188.053 136H167.381ZM219.115 136.768H217.643C190.699 136.768 188.075 126.912 188.075 120.192V120H209.067C209.259 121.664 209.771 124.928 218.027 124.928H218.411C226.283 124.928 227.435 123.072 227.435 121.344C227.435 119.424 226.539 117.952 218.859 117.824L212.011 117.696C193.323 117.312 188.843 110.592 188.843 102.784V102.272C188.843 93.632 194.795 87.68 216.107 87.68H219.115C243.051 87.68 247.083 95.744 247.083 103.168V103.296H226.539C226.283 101.504 225.003 99.136 217.771 99.136H217.323C210.027 99.136 208.875 100.48 208.875 102.336C208.875 104.192 210.155 105.408 217.003 105.536L224.043 105.664C243.435 106.048 247.787 111.36 247.787 120.192V120.96C247.787 129.152 243.883 136.768 219.115 136.768ZM271.318 136V102.784H251.862V88.384H310.23V102.784H290.774V136H271.318ZM371.636 122.368H355.06V136H335.54V88.384H371.636C390.9 88.384 395.508 95.04 395.508 104.576V105.472C395.508 115.264 390.644 122.368 371.636 122.368ZM355.06 101.44V109.312H369.716C374.324 109.312 375.22 107.328 375.22 105.344V105.216C375.22 103.488 374.324 101.44 369.716 101.44H355.06ZM402.01 88.384H421.53V121.152H449.69V136H402.01V88.384ZM492.059 116.928L485.531 102.464L478.939 116.928H492.059ZM500.763 136L497.499 128.896H473.499L470.235 136H450.715L473.307 88.384H498.587L521.435 136H500.763ZM537.332 136V119.232L511.796 88.384H535.412L547.892 104.192L560.692 88.384H581.556L556.788 119.232V136H537.332ZM619.733 136V102.784H600.277V88.384H658.645V102.784H639.189V136H619.733ZM665.422 88.384H714.51V100.864H685.006V107.008H713.614V119.68H685.006V136H665.422V88.384ZM739.36 136V102.784H719.904V88.384H778.272V102.784H758.816V136H739.36ZM816.922 117.824H798.618V115.712C798.618 111.04 799.834 107.392 808.09 105.6L812.25 104.704C815.77 104 816.858 103.424 816.858 102.016C816.858 100.416 815.514 99.648 810.202 99.648C802.842 99.648 802.458 102.592 802.394 104.128H782.298V103.168C782.298 97.6 784.09 87.808 808.474 87.808H810.586C833.754 87.936 837.146 95.104 837.146 101.952V102.656C837.146 109.056 832.73 113.152 822.746 115.072L819.418 115.712C817.114 116.16 816.922 116.928 816.922 117.824ZM817.562 120.896V136H797.978V120.896H817.562Z" fill="white"/>
<path d="M38 36C38 42.6274 32.6274 48 26 48C19.3726 48 14 42.6274 14 36C14 29.3726 19.3726 24 26 24C32.6274 24 38 29.3726 38 36Z" fill="white"/>
<path d="M34 32H87V42H34V32Z" fill="white"/>
<path d="M864 36C864 42.6274 869.373 48 876 48C882.627 48 888 42.6274 888 36C888 29.3726 882.627 24 876 24C869.373 24 864 29.3726 864 36Z" fill="white"/>
<path d="M868 32H815V42H868V32Z" fill="white"/>
</g>
<defs>
<clipPath id="clip0_150_2">
<rect width="902" height="149" fill="white"/>
</clipPath>
</defs>
</svg>
