<?xml version="1.0" encoding="UTF-8" standalone="no"?>
<svg width="58" height="58" viewBox="0 0 58 58" fill="none" version="1.1" id="svg1" sodipodi:docname="8Bit_normal_1699003345-8-bit-gray.svg" inkscape:version="1.3 (0e150ed6c4, 2023-07-21)" xmlns:inkscape="http://www.inkscape.org/namespaces/inkscape" xmlns:sodipodi="http://sodipodi.sourceforge.net/DTD/sodipodi-0.dtd" xmlns="http://www.w3.org/2000/svg" xmlns:svg="http://www.w3.org/2000/svg">
  <defs id="defs1"/>
  <sodipodi:namedview id="namedview1" pagecolor="#ffffff" bordercolor="#000000" borderopacity="0.25" inkscape:showpageshadow="2" inkscape:pageopacity="0.0" inkscape:pagecheckerboard="0" inkscape:deskcolor="#d1d1d1" showgrid="false" inkscape:zoom="4.0689655" inkscape:cx="29" inkscape:cy="28.877119" inkscape:window-width="1366" inkscape:window-height="705" inkscape:window-x="-8" inkscape:window-y="-8" inkscape:window-maximized="1" inkscape:current-layer="svg1"/>
  <path d="m 19.870054,9.4656558 c 0,-5.2274252 4.234502,-9.46565597060618 9.45737,-9.46565597060618 5.222877,0 9.457503,4.23823077060618 9.457503,9.46565597060618 0,3.4952542 -1.912784,6.5124172 -4.728752,8.1523432 v 2.669429 3.769678 c 0,2.612522 -2.118402,4.732899 -4.728751,4.732899 -1.305019,0 -2.487266,-0.530168 -3.343198,-1.386781 -0.855807,-0.856631 -1.385551,-2.03985 -1.385551,-3.346118 V 17.617999 C 21.782732,15.978073 19.870054,12.96091 19.870054,9.4656558 Z M 6.6296357,31.475864 28.053071,42.131912 c 0.822772,0.409337 1.825241,0.395249 2.631582,-0.03787 L 51.157692,31.137473 c 1.839483,-0.984491 1.673886,-3.421939 -0.286146,-4.198042 l -12.086619,-4.78261 v 1.90024 c 0,5.220373 -4.241666,9.465788 -9.457503,9.465788 -5.215692,0 -9.45737,-4.245415 -9.45737,-9.465788 V 21.806652 L 6.7974249,27.258882 C 4.8420963,28.075343 4.7428032,30.538728 6.6296357,31.475861 Z M 51.105638,35.763808 30.537991,46.287296 c -0.676108,0.345512 -1.480128,0.345512 -2.156246,0 L 6.8967169,35.23614 C 5.3221247,34.426881 3.451862,35.569773 3.451862,37.339912 v 5.731485 c 0,0.873205 0.4800289,1.673074 1.2484056,2.087222 L 28.138141,57.719605 c 0.737702,0.395234 1.629127,0.371474 2.345446,-0.0639 L 53.41325,43.698512 c 0.704576,-0.428375 1.134888,-1.195099 1.134888,-2.020913 v -3.807655 c 0,-1.767657 -1.870263,-2.91303 -3.4425,-2.106136 z" fill="#A0A0A0" id="path1" style="fill:#bd9e59;fill-opacity:1;stroke-width:1.38086"/>
</svg>